# xmcd CD database file
#
# Track frame offsets:
#	150
#	25050
#	47317
#	82837
#	101307
#	121602
#	144142
#	172270
#	194515
#	221995
#	229067
#
# Disc length: 3355 seconds
#
# Revision: 0
# Processed by: cddbd v1.4PL0 Copyright (c) Steve Scherf et al.
# Submitted via: CDex 1.50Beta7
#
DISCID=860d190b
DTITLE=Altered States with Ned Rothenberg - Cafe 9.15
DYEAR=1996
DGENRE=Jazz
TTITLE0=Amedeo
TTITLE1=mendochino
TTITLE2=linus
TTITLE3=yo-yo
TTITLE4=speetz
TTITLE5=Fender
TTITLE6=rodem
TTITLE7=Inter-laken
TTITLE8=Jigen
TTITLE9=Arti-stan
TTITLE10=Tenjiku
EXTD=YEAR: 1996
EXTT0=
EXTT1=
EXTT2=
EXTT3=
EXTT4=
EXTT5=
EXTT6=
EXTT7=
EXTT8=
EXTT9=
EXTT10=
PLAYORDER=
